# xmcd
#
# Track frame offsets: 
#        150
#        11677
#        24479
#        37281
#        51072
#        62352
#        78994
#        93589
#        109443
#        121165
#        132182
#        144879
#        156459
#        169346
#        181090
#        196510
#        212282
#        228887
#        242441
#        260208
#        274643
#
# Disc length: 3897 seconds
#
# Revision: 0
# Processed by: cddbd v1.5.2PL0 Copyright (c) Steve Scherf et al.
# Submitted via: ExactAudioCopy v1.1
#
DISCID=170f3715
DTITLE=Big John Hamilton - Are You Happy With Him
DYEAR=2009
DGENRE=R&B
TTITLE0=Temporary Love
TTITLE1=Angel
TTITLE2=Free Me
TTITLE3=I Got To Get Myself Somebody
TTITLE4=Show Me Your Love
TTITLE5=Are You Happy With Him
TTITLE6=Give Me Some Of Yourself
TTITLE7=Love Comes And Goes
TTITLE8=I'll Just Keep On Loving You
TTITLE9=After Loving You
TTITLE10=Tender Side Of Me
TTITLE11=Old Man Bad Luck (Got His Cuffs On Me)
TTITLE12=On Our Way Home
TTITLE13=Soul Socking Thing
TTITLE14=I Want My Baby Back
TTITLE15=Creole Lady
TTITLE16=Every Time You Touch Me
TTITLE17=Rainy Day Lover
TTITLE18=Country And The Blues
TTITLE19=Help Me Make It Through The Night
TTITLE20=Kiss The Hurt Away
EXTD=
EXTT0=
EXTT1=
EXTT2=
EXTT3=
EXTT4=
EXTT5=
EXTT6=
EXTT7=
EXTT8=
EXTT9=
EXTT10=
EXTT11=
EXTT12=
EXTT13=
EXTT14=
EXTT15=
EXTT16=
EXTT17=
EXTT18=
EXTT19=
EXTT20=
PLAYORDER=
